<?xml version="1.0" encoding="UTF-8" standalone="no"?>
<!DOCTYPE svg PUBLIC "-//W3C//DTD SVG 1.1//EN" "http://www.w3.org/Graphics/SVG/1.1/DTD/svg11.dtd">
<svg width="100%" height="100%" viewBox="0 0 1000 1000" version="1.1" xmlns="http://www.w3.org/2000/svg" xmlns:xlink="http://www.w3.org/1999/xlink" xml:space="preserve" xmlns:serif="http://www.serif.com/" style="fill-rule:evenodd;clip-rule:evenodd;stroke-linejoin:round;stroke-miterlimit:2;">
    <g transform="matrix(8.58843,0,0,8.58843,-3329.24,-1629.76)">
        <g>
            <g>
                <g transform="matrix(1,0,0,1,388.247,196.98)">
                    <path d="M115.226,45.239L97.652,45.239C95.783,26.685 84.97,9.983 68.498,0.738C65.72,-0.82 62.211,0.169 60.653,2.943C59.095,5.717 60.083,9.229 62.857,10.787C77.392,18.943 86.42,34.351 86.42,51C86.42,67.648 77.392,83.056 62.859,91.211C60.085,92.77 59.097,96.28 60.656,99.057C61.712,100.94 63.668,102 65.685,102C66.639,102 67.607,101.763 68.498,101.261C84.97,92.018 95.783,75.315 97.652,56.761L115.226,56.761L115.226,45.239Z" style="fill:white;fill-rule:nonzero;"/>
                </g>
                <g transform="matrix(1,0,0,1,388.247,196.98)">
                    <path d="M40.329,27.489C29.335,27.489 20.132,35.044 17.558,45.239L0,45.239L0,56.761L17.559,56.761C20.132,66.956 29.335,74.511 40.329,74.511C53.314,74.511 63.84,63.982 63.84,51C63.84,38.015 53.314,27.489 40.329,27.489Z" style="fill:white;fill-rule:nonzero;"/>
                </g>
            </g>
        </g>
    </g>
</svg>
