<?xml version="1.0" encoding="UTF-8" standalone="no"?>
<!DOCTYPE svg PUBLIC "-//W3C//DTD SVG 1.1//EN" "http://www.w3.org/Graphics/SVG/1.1/DTD/svg11.dtd">
<svg width="100%" height="100%" viewBox="0 0 100 100" version="1.1" xmlns="http://www.w3.org/2000/svg" xmlns:xlink="http://www.w3.org/1999/xlink" xml:space="preserve" xmlns:serif="http://www.serif.com/" style="fill-rule:evenodd;clip-rule:evenodd;stroke-linejoin:round;stroke-miterlimit:2;">
    <g transform="matrix(0.603841,0,0,0.603841,0.940612,6.41518)">
        <g>
            <g id="tight-bounds">
                <g>
                    <g>
                        <g>
                            <g>
                                <g>
                                    <g>
                                        <g id="icon-0">
                                            <g>
                                                <path d="M123.523,1.497L122.774,0L40.987,0L-0,72.055L40.8,144.11L122.587,144.11L163.574,72.055L123.523,1.497ZM50.532,25.828L6.738,67.75L41.549,6.363L50.532,25.828ZM120.528,6.176L132.506,72.991L57.27,26.763L120.528,6.176ZM54.649,29.571L131.383,76.734L54.649,120.341L54.649,29.571ZM132.319,80.477L118.844,138.121L57.831,122.961L132.319,80.477ZM50.906,118.844L6.738,72.991L50.906,30.506L50.906,118.844ZM50.345,123.71L41.736,138.121L9.732,81.6L50.345,123.71ZM53.714,125.582L112.481,140.367L44.73,140.367L53.714,125.582ZM136.624,78.231L158.334,73.552L123.149,135.688L136.624,78.231ZM157.959,69.996L136.624,74.675L125.582,12.727L157.959,69.996ZM53.714,23.956L44.356,3.743L115.849,3.743L53.714,23.956Z" style="fill-rule:nonzero;"/>
                                            </g>
                                        </g>
                                    </g>
                                </g>
                            </g>
                        </g>
                    </g>
                </g>
            </g>
        </g>
    </g>
</svg>
